<svg width="27px"
     height="29px"
     viewBox="229 12 27 29"
     version="1.1"
     xmlns="http://www.w3.org/2000/svg"
     xmlns:xlink="http://www.w3.org/1999/xlink">
    <g id="Page-1"
       stroke="none"
       stroke-width="1"
       fill="none"
       fill-rule="evenodd"
       transform="translate(229.000000, 12.000000)">
        <path d="M18.892575,11.4237675 L18.892575,11.4237675 L2.348325,11.4237675 L3.327075,15.2172675 L17.880075,15.2172675 L17.880075,15.2105175 L18.892575,11.4237675 Z M5.439825,21.8930175 L5.439825,21.8930175 L5.095575,21.8930175 C4.778325,21.9402675 4.501575,22.0685175 4.278825,22.2777675 L4.258575,22.3047675 C4.002075,22.5545175 3.840075,22.9122675 3.840075,23.2970175 C3.840075,23.7087675 4.002075,24.0597675 4.258575,24.3162675 C4.515075,24.5727675 4.879575,24.7212675 5.257575,24.7212675 C5.655825,24.7212675 6.013575,24.5727675 6.270075,24.3162675 C6.526575,24.0597675 6.688575,23.7087675 6.688575,23.2970175 C6.688575,22.9122675 6.526575,22.5545175 6.270075,22.3047675 C6.047325,22.0685175 5.757075,21.9402675 5.439825,21.8930175 L5.439825,21.8930175 Z M17.556075,21.8795175 L17.556075,21.8795175 C17.515575,21.8862675 17.475075,21.8862675 17.421075,21.8862675 L17.421075,21.8930175 L17.394075,21.8930175 C17.070075,21.9402675 16.786575,22.0685175 16.550325,22.3047675 C16.300575,22.5545175 16.145325,22.9122675 16.145325,23.2970175 C16.145325,23.7087675 16.300575,24.0597675 16.550325,24.3162675 C16.813575,24.5727675 17.164575,24.7212675 17.562825,24.7212675 C17.940825,24.7212675 18.291825,24.5862675 18.541575,24.3365175 L18.568575,24.3162675 C18.825075,24.0597675 18.980325,23.7087675 18.980325,23.2970175 C18.980325,22.9122675 18.825075,22.5545175 18.568575,22.3047675 C18.305325,22.0415175 17.954325,21.8795175 17.562825,21.8795175 L17.556075,21.8795175 Z M10.684575,7.9272675 L10.684575,7.9272675 L10.691325,7.9272675 L10.704825,7.9272675 L10.711575,7.9272675 L10.718325,7.9272675 L10.731825,7.9272675 L10.752075,7.9272675 L10.758825,7.9272675 L10.772325,7.9272675 L10.772325,7.9137675 L10.792575,7.9137675 L10.806075,7.9137675 L10.819575,7.9137675 L10.833075,7.9002675 L10.846575,7.9002675 L10.887075,7.8665175 L10.893825,7.8665175 L10.900575,7.8665175 L10.907325,7.8665175 L10.907325,7.8530175 L10.914075,7.8530175 L10.920825,7.8530175 L10.927575,7.8530175 L10.934325,7.8462675 L10.947825,7.8462675 L10.947825,7.8395175 L10.968075,7.8395175 L10.968075,7.8327675 L10.981575,7.8260175 L11.008575,7.8125175 L11.008575,7.8057675 L11.008575,7.7922675 L11.022075,7.7922675 L11.022075,7.7855175 L11.035575,7.7855175 L11.035575,7.7787675 L11.035575,7.7720175 L11.042325,7.7652675 L11.062575,7.7517675 L11.069325,7.7517675 L11.082825,7.7382675 L14.883075,3.9245175 C15.126075,3.6882675 15.126075,3.2900175 14.883075,3.0537675 C14.653575,2.8242675 14.248575,2.8242675 14.019075,3.0537675 L11.244825,5.8347675 L11.244825,0.6237675 C11.244825,0.2795175 10.968075,0.0027675 10.630575,0.0027675 C10.279575,0.0027675 10.009575,0.2795175 10.009575,0.6237675 L10.009575,5.8347675 L7.235325,3.0537675 C6.985575,2.8242675 6.594075,2.8242675 6.351075,3.0537675 C6.121575,3.2900175 6.121575,3.6882675 6.351075,3.9245175 L10.158075,7.7382675 L10.178325,7.7517675 L10.185075,7.7517675 L10.191825,7.7652675 L10.205325,7.7720175 L10.212075,7.7787675 L10.218825,7.7855175 L10.225575,7.7922675 L10.245825,7.8057675 L10.245825,7.8125175 L10.279575,7.8260175 L10.279575,7.8327675 L10.293075,7.8395175 L10.306575,7.8462675 L10.320075,7.8530175 L10.333575,7.8530175 L10.340325,7.8665175 L10.360575,7.8665175 L10.401075,7.9002675 L10.407825,7.9002675 L10.421325,7.9002675 L10.434825,7.9137675 L10.455075,7.9137675 L10.468575,7.9137675 L10.482075,7.9272675 L10.495575,7.9272675 L10.509075,7.9272675 L10.515825,7.9272675 L10.529325,7.9272675 L10.536075,7.9272675 L10.549575,7.9272675 L10.556325,7.9272675 L10.563075,7.9272675 L10.630575,7.9407675 L10.684575,7.9272675 Z M1.032075,9.3650175 L19.446075,9.3650175 L21.376575,2.1087675 C21.477825,1.6295175 21.889575,1.2852675 22.402575,1.2852675 L25.413075,1.2852675 C25.986825,1.2852675 26.439075,1.7375175 26.439075,2.3112675 C26.439075,2.8782675 25.986825,3.3507675 25.413075,3.3507675 L23.185575,3.3507675 L18.514575,20.8197675 C18.865575,20.9547675 19.176075,21.1640175 19.446075,21.4272675 C19.932075,21.9065175 20.222325,22.5747675 20.222325,23.2970175 C20.222325,24.0462675 19.932075,24.7010175 19.446075,25.1870175 L19.405575,25.2207675 C18.919575,25.6865175 18.278325,25.9632675 17.562825,25.9632675 C16.833825,25.9632675 16.158825,25.6730175 15.686325,25.1870175 C15.207075,24.7010175 14.910075,24.0462675 14.910075,23.2970175 C14.910075,22.7907675 15.058575,22.3047675 15.308325,21.8930175 L7.512075,21.8930175 C7.775325,22.3047675 7.923825,22.7907675 7.923825,23.2970175 C7.923825,24.0462675 7.626825,24.7010175 7.147575,25.1870175 C6.661575,25.6730175 6.000075,25.9632675 5.257575,25.9632675 C4.542075,25.9632675 3.860325,25.6730175 3.387825,25.1870175 L3.381075,25.1870175 C2.908575,24.7010175 2.598075,24.0462675 2.598075,23.2970175 C2.598075,22.7907675 2.760075,22.3047675 3.016575,21.8795175 C2.510325,21.8187675 2.125575,21.3800175 2.125575,20.8602675 C2.125575,20.2932675 2.584575,19.8342675 3.151575,19.8342675 L16.638075,19.8342675 L17.326575,17.2760175 L2.537325,17.2760175 C2.031075,17.2760175 1.599075,16.8980175 1.518075,16.4255175 L0.033075,10.6542675 C-0.108675,10.1075175 0.222075,9.5405175 0.768825,9.4055175 C0.856575,9.3852675 0.944325,9.3650175 1.032075,9.3650175 L1.032075,9.3650175 Z"
              id="Fill-1"
              fill="#9B9B9B"></path>
    </g>
</svg>