<svg width="27px"
     height="21px"
     viewBox="125 15 27 21"
     version="1.1"
     xmlns="http://www.w3.org/2000/svg"
     xmlns:xlink="http://www.w3.org/1999/xlink">
    <defs>
        <polygon id="path-1" points="26.7975 10.4820188 26.7975 0.00275625 0 0.00275625 0 10.4820188 0 20.9612813 26.7975 20.9612813 26.7975 10.4820188"></polygon>
    </defs>
    <g id="Page-1"
       stroke="none"
       stroke-width="1"
       fill="none"
       fill-rule="evenodd"
       transform="translate(125.000000, 15.000000)">
        <mask id="mask-2"
              fill="white">
            <use xlink:href="#path-1"></use>
        </mask>
        <g id="Clip-2"></g>
        <path d="M12.7845,18.8734219 L12.7845,18.8734219 L12.7845,2.10853125 L2.05875,2.10853125 L2.05875,18.8734219 L12.7845,18.8734219 Z M14.013,6.71835937 L14.013,6.71835937 L24.732,6.71835937 L24.732,2.10853125 L14.013,2.10853125 L14.013,6.71835937 Z M24.732,14.2567031 L24.732,14.2567031 L14.013,14.2567031 L14.013,18.8734219 L24.732,18.8734219 L24.732,14.2567031 Z M14.013,12.9957188 L14.013,12.9957188 L24.732,12.9957188 L24.732,7.97245313 L14.013,7.97245313 L14.013,12.9957188 Z M19.3725,3.362625 L19.3725,3.362625 C18.8055,3.362625 18.33975,3.83807812 18.33975,4.40310937 C18.33975,4.9888125 18.8055,5.46426562 19.3725,5.46426562 C19.9395,5.46426562 20.40525,4.9888125 20.40525,4.40310937 C20.40525,3.83807812 19.9395,3.362625 19.3725,3.362625 L19.3725,3.362625 Z M19.3725,15.5107969 L19.3725,15.5107969 C18.8055,15.5107969 18.33975,15.9793594 18.33975,16.5581719 C18.33975,17.1507656 18.8055,17.6193281 19.3725,17.6193281 C19.953,17.6193281 20.40525,17.1507656 20.40525,16.5581719 C20.40525,15.9793594 19.953,15.5107969 19.3725,15.5107969 L19.3725,15.5107969 Z M19.3725,9.44015625 L19.3725,9.44015625 C18.8055,9.44015625 18.33975,9.91560937 18.33975,10.4806406 C18.33975,11.0663437 18.8055,11.5417969 19.3725,11.5417969 C19.953,11.5417969 20.40525,11.0663437 20.40525,10.4806406 C20.40525,9.91560937 19.953,9.44015625 19.3725,9.44015625 L19.3725,9.44015625 Z M10.60425,3.362625 L10.60425,3.362625 C10.044,3.362625 9.57825,3.83807812 9.57825,4.40310937 C9.57825,4.9888125 10.044,5.46426562 10.60425,5.46426562 C11.178,5.46426562 11.64375,4.9888125 11.64375,4.40310937 C11.64375,3.83807812 11.178,3.362625 10.60425,3.362625 L10.60425,3.362625 Z M1.0395,0 L1.05975,0 L25.7715,0 C26.33175,0 26.7975,0.475453125 26.7975,1.05426563 L26.7975,1.0749375 L26.7975,19.9207969 C26.7975,20.4996094 26.33175,20.9612812 25.7715,20.9612812 L25.7445,20.9612812 L1.0395,20.9612812 C0.46575,20.9612812 0,20.4996094 0,19.9207969 L0,19.8863437 L0,1.05426563 C0,0.475453125 0.46575,0 1.0395,0 L1.0395,0 Z"
              id="Fill-1"
              fill="#9B9B9B"
              mask="url(#mask-2)"></path>
    </g>
</svg>