<svg width="28px"
     height="26px"
     viewBox="27 12 28 26"
     version="1.1"
     xmlns="http://www.w3.org/2000/svg"
     xmlns:xlink="http://www.w3.org/1999/xlink">
    <defs>
        <polygon id="path-1" points="0 25.88089 27.783 25.88089 27.783 0.00189 0 0.00189"></polygon>
    </defs>
    <g id="home-icon"
       stroke="none"
       stroke-width="1"
       fill="none"
       fill-rule="evenodd"
       transform="translate(27.000000, 12.000000)">
        <mask id="mask-2"
              fill="white">
            <use xlink:href="#path-1"></use>
        </mask>
        <g id="Clip-2"></g>
        <path d="M1.82,14.64099 L1.82,14.64099 L13.888,2.57999 L25.97,14.64099 C26.376,15.05399 27.062,15.05399 27.468,14.64099 C27.888,14.22799 27.888,13.54899 27.468,13.13599 L14.665,0.31899 L14.644,0.30499 C14.231,-0.10101 13.552,-0.10101 13.139,0.30499 L0.315,13.13599 C-0.105,13.54899 -0.105,14.22799 0.315,14.64099 C0.728,15.05399 1.407,15.05399 1.82,14.64099 L1.82,14.64099 Z M21.63,14.35399 C21.63,13.75899 22.113,13.28999 22.708,13.28999 C23.296,13.28999 23.772,13.75899 23.772,14.35399 L23.772,24.81199 C23.772,25.39999 23.296,25.88299 22.708,25.88299 L22.673,25.88299 L5.096,25.88299 C4.508,25.88299 4.018,25.39999 4.018,24.81199 L4.018,24.79099 L4.018,14.35399 C4.018,13.75899 4.508,13.28999 5.096,13.28999 C5.67,13.28999 6.16,13.75899 6.16,14.35399 L6.16,23.74099 L21.63,23.74099 L21.63,14.35399 Z"
              id="Fill-1"
              fill="#D0011B"
              fill-rule="evenodd"
              mask="url(#mask-2)"></path>
    </g>
</svg>