<svg width="22px"
     height="25px"
     viewBox="327 13 22 25"
     version="1.1"
     xmlns="http://www.w3.org/2000/svg"
     xmlns:xlink="http://www.w3.org/1999/xlink">
    <defs>
        <polygon id="path-1"
                 points="21.5548667 0.443646389 21.5548667 24.8144214 0 24.8144214 0 0.443646389 21.5548667 0.443646389"></polygon>
    </defs>
    <g id="Page-1"
       stroke="none"
       stroke-width="1"
       fill="none"
       fill-rule="evenodd"
       transform="translate(327.000000, 13.000000)">
        <mask id="mask-2" fill="white">
            <use xlink:href="#path-1"></use>
        </mask>
        <g id="Clip-2"></g>
        <path d="M13.57433,16.3802019 L13.57433,16.3802019 L10.76933,16.3802019 L7.98303,16.3802019 C6.30626333,16.3802019 4.79779667,17.0616186 3.70073,18.1482019 C2.59119667,19.2286464 1.91799667,20.7265353 1.91799667,22.3656186 L1.91799667,22.9365353 L19.65183,22.9365353 L19.65183,22.3656186 C19.65183,20.7265353 18.9661633,19.2286464 17.8628633,18.1482019 L17.8628633,18.1359242 C16.7595633,17.0616186 15.2510967,16.3802019 13.57433,16.3802019 L13.57433,16.3802019 Z M15.1575967,4.10242417 L15.1575967,4.10242417 C14.0355967,2.99742417 12.4959633,2.32214639 10.76933,2.32214639 C9.06139667,2.32214639 7.51553,2.99742417 6.39976333,4.10242417 C5.28399667,5.20742417 4.58586333,6.72986861 4.58586333,8.41192417 C4.58586333,10.0878408 5.28399667,11.6164242 6.39976333,12.7214242 L6.39976333,12.7275631 C7.51553,13.8264242 9.06139667,14.5139797 10.76933,14.5139797 C12.4959633,14.5139797 14.0293633,13.8264242 15.14513,12.7214242 C16.26713,11.6164242 16.9652633,10.0878408 16.9652633,8.41192417 C16.9652633,6.72986861 16.26713,5.20742417 15.14513,4.10242417 L15.1575967,4.10242417 Z M16.5039967,2.78870194 C17.9625967,4.21906306 18.86643,6.20806306 18.86643,8.41192417 C18.86643,10.6219242 17.9625967,12.6109242 16.5039967,14.0474242 C16.2359633,14.3175353 15.9429967,14.5569519 15.65003,14.7840908 C17.0213633,15.1462853 18.2243967,15.8583964 19.2092633,16.8222019 C20.6491633,18.2280075 21.55923,20.2108686 21.55923,22.3656186 L21.55923,23.8696464 C21.55923,24.3914519 21.1228967,24.8150353 20.5992967,24.8150353 L0.958063333,24.8150353 C0.434463333,24.8150353 -0.00187,24.3914519 -0.00187,23.8696464 L-0.00187,22.3656186 C-0.00187,20.2108686 0.89573,18.2280075 2.34809667,16.8222019 C3.31426333,15.8461186 4.54846333,15.1462853 5.90733,14.7840908 C5.60813,14.5508131 5.32139667,14.3175353 5.05959667,14.0474242 C3.59476333,12.6109242 2.68469667,10.6219242 2.68469667,8.41192417 C2.68469667,6.20806306 3.59476333,4.21906306 5.05959667,2.78870194 C6.51819667,1.33378528 8.55026333,0.443646389 10.76933,0.443646389 C13.0070967,0.443646389 15.03293,1.33378528 16.5039967,2.78870194 Z"
              id="Fill-1"
              fill="#9B9B9B"
              mask="url(#mask-2)"></path>
    </g>
</svg>